<svg version="1.0" preserveAspectRatio="xMidYMid meet" viewBox="215.62694300518135 318.383997588 166.47668393782385 106.127999196" zoomAndPan="magnify" xmlns:xlink="http://www.w3.org/1999/xlink" xmlns="http://www.w3.org/2000/svg" style="max-height: 500px" width="166.47668393782385" height="106.127999196"><defs><clipPath id="a523857201"><path clip-rule="nonzero" d="M 216 315 L 399 315 L 399 455 L 216 455 Z M 216 315"/></clipPath><clipPath id="cb20d0f779"><path clip-rule="nonzero" d="M 216.90625 367.722656 L 368.640625 315.402344 L 398.46875 401.902344 L 246.734375 454.222656 Z M 216.90625 367.722656"/></clipPath><clipPath id="87460e84db"><path clip-rule="nonzero" d="M 6 15 L 162 15 L 162 105 L 6 105 Z M 6 15"/></clipPath><clipPath id="b1df9ade89"><path clip-rule="nonzero" d="M 0.90625 52.722656 L 152.640625 0.402344 L 182.46875 86.902344 L 30.734375 139.222656 Z M 0.90625 52.722656"/></clipPath><clipPath id="0e35168ae5"><path clip-rule="nonzero" d="M 152.40625 0.480469 L 0.675781 52.800781 L 30.503906 139.304688 L 182.234375 86.984375 Z M 152.40625 0.480469"/></clipPath><clipPath id="513efcd6d1"><path clip-rule="nonzero" d="M 152.40625 0.480469 L 0.675781 52.800781 L 30.503906 139.304688 L 182.234375 86.984375 Z M 152.40625 0.480469"/></clipPath><clipPath id="3f7cff19ce"><rect height="140" y="0" width="183" x="0"/></clipPath><clipPath id="86320637b2"><path clip-rule="nonzero" d="M 213 309 L 396 309 L 396 449 L 213 449 Z M 213 309"/></clipPath><clipPath id="9a2baea089"><path clip-rule="nonzero" d="M 213.808594 361.988281 L 365.542969 309.667969 L 395.367188 396.167969 L 243.636719 448.488281 Z M 213.808594 361.988281"/></clipPath><clipPath id="b2e484dd1c"><path clip-rule="nonzero" d="M 6 16 L 162 16 L 162 105 L 6 105 Z M 6 16"/></clipPath><clipPath id="b9394bd3e0"><path clip-rule="nonzero" d="M 0.808594 52.988281 L 152.542969 0.667969 L 182.367188 87.167969 L 30.636719 139.488281 Z M 0.808594 52.988281"/></clipPath><clipPath id="d32c36aab0"><path clip-rule="nonzero" d="M 152.308594 0.746094 L 0.574219 53.066406 L 30.402344 139.570312 L 182.136719 87.25 Z M 152.308594 0.746094"/></clipPath><clipPath id="f248891f04"><path clip-rule="nonzero" d="M 152.308594 0.746094 L 0.574219 53.066406 L 30.402344 139.570312 L 182.136719 87.25 Z M 152.308594 0.746094"/></clipPath><clipPath id="54d01a9810"><rect height="140" y="0" width="183" x="0"/></clipPath></defs><g clip-path="url(#a523857201)"><g clip-path="url(#cb20d0f779)"><g transform="matrix(1, 0, 0, 1, 216, 315)"><g clip-path="url(#3f7cff19ce)"><g clip-path="url(#87460e84db)"><g clip-path="url(#b1df9ade89)"><g clip-path="url(#0e35168ae5)"><g clip-path="url(#513efcd6d1)"><path fill-rule="nonzero" fill-opacity="1" d="M 89.4375 22.171875 C 89.113281 22.8125 90.046875 35.785156 90.390625 36.523438 C 90.539062 36.855469 95.648438 40.90625 95.972656 41.066406 C 98.085938 42.117188 114.074219 42.972656 117.609375 43.0625 C 120.449219 43.132812 133.507812 41.789062 134.601562 42.984375 C 118.5 63.109375 94.945312 69.429688 70.15625 70.867188 C 58.855469 71.523438 47.273438 70.777344 36.546875 66.929688 C 31.632812 65.160156 19.34375 57.695312 15.042969 58.074219 C 10.746094 58.453125 9.257812 66.183594 6.496094 68.164062 L 10.902344 71.503906 L 8.324219 73.484375 C 11.972656 73.652344 12.519531 76.167969 15.019531 77.96875 C 35.210938 92.480469 57.171875 94.136719 81.402344 90.867188 C 104.09375 87.804688 126.257812 79.113281 139.988281 60.144531 C 140.828125 60.890625 139.953125 63.042969 139.671875 64.015625 C 137.335938 72.132812 131.074219 82.039062 129.714844 89.84375 C 128.925781 94.410156 130.078125 98.890625 129.417969 103.410156 C 130.335938 103.835938 131.042969 104.671875 132.183594 103.984375 C 134.390625 102.65625 143.585938 82.828125 145.386719 78.910156 C 151.425781 65.753906 163.410156 39.839844 160.824219 25.800781 C 160.460938 23.832031 157.152344 16.882812 155.820312 16.015625 C 153.628906 14.585938 140.019531 19.382812 136.0625 20.109375 C 121.035156 22.886719 104.652344 21.039062 89.445312 22.171875 Z M 89.4375 22.171875" fill="#08340c"/></g></g></g></g></g></g></g></g><g clip-path="url(#86320637b2)"><g clip-path="url(#9a2baea089)"><g transform="matrix(1, 0, 0, 1, 213, 309)"><g clip-path="url(#54d01a9810)"><g clip-path="url(#b2e484dd1c)"><g clip-path="url(#b9394bd3e0)"><g clip-path="url(#d32c36aab0)"><g clip-path="url(#f248891f04)"><path fill-rule="nonzero" fill-opacity="1" d="M 89.339844 22.4375 C 89.015625 23.078125 89.945312 36.050781 90.289062 36.792969 C 90.441406 37.121094 95.546875 41.171875 95.875 41.332031 C 97.984375 42.382812 113.976562 43.238281 117.511719 43.328125 C 120.351562 43.398438 133.410156 42.058594 134.503906 43.253906 C 118.398438 63.375 94.847656 69.699219 70.058594 71.132812 C 58.753906 71.789062 47.175781 71.042969 36.449219 67.195312 C 31.535156 65.429688 19.246094 57.960938 14.945312 58.339844 C 10.644531 58.722656 9.160156 66.449219 6.394531 68.429688 L 10.800781 71.769531 L 8.222656 73.753906 C 11.875 73.921875 12.417969 76.4375 14.917969 78.234375 C 35.113281 92.75 57.074219 94.40625 81.304688 91.136719 C 103.996094 88.070312 126.160156 79.378906 139.890625 60.410156 C 140.730469 61.160156 139.855469 63.3125 139.574219 64.28125 C 137.234375 72.398438 130.972656 82.304688 129.617188 90.113281 C 128.824219 94.675781 129.980469 99.15625 129.320312 103.675781 C 130.238281 104.101562 130.945312 104.9375 132.082031 104.253906 C 134.292969 102.925781 143.488281 83.097656 145.289062 79.175781 C 151.328125 66.019531 163.3125 40.109375 160.726562 26.070312 C 160.363281 24.101562 157.054688 17.148438 155.71875 16.28125 C 153.53125 14.855469 139.921875 19.648438 135.960938 20.375 C 120.9375 23.152344 104.554688 21.308594 89.34375 22.4375 Z M 89.339844 22.4375" fill="#ffc700"/></g></g></g></g></g></g></g></g></svg>