<svg width="42" height="42" viewBox="0 0 42 42" fill="none" xmlns="http://www.w3.org/2000/svg">
<g clip-path="url(#clip0_241_84)">
<!-- <rect width="42" height="42" fill="#F78484"/> -->
<path d="M1 22C1.66667 22.1333 2.33333 22.26 3 22.38C9 23.46 15 24 21 24C27 24 33 23.46 39 22.38C39.6667 22.26 40.3333 22.1333 41 22C40.3333 21.8667 39.6667 21.74 39 21.62C33 20.54 27 20 21 20C15 20 9 20.54 3 21.62C2.33333 21.74 1.66667 21.8667 1 22Z" fill="white"/>
<path d="M1 34.25C1 34.75 1 35.25 1 35.75C1.66667 35.9167 2.33333 36.0667 3 36.2C5.66667 36.7333 8.33333 37 11 37C20.3333 37 29.6667 36.637 39 35.9111C39.6667 35.8593 40.3333 35.8056 41 35.75C41 35.25 41 34.75 41 34.25C40.3333 34.1944 39.6667 34.1407 39 34.0889C29.6667 33.363 20.3333 33 11 33C8.33333 33 5.66667 33.2667 3 33.8C2.33333 33.9333 1.66667 34.0833 1 34.25Z" fill="white"/>
<path d="M1 8.25C1 8.75 1 9.25 1 9.75C1.66667 9.91667 2.33333 10.0667 3 10.2C5.66667 10.7333 8.33333 11 11 11C20.3333 11 29.6667 10.637 39 9.91111C39.6667 9.85926 40.3333 9.80556 41 9.75C41 9.25 41 8.75 41 8.25C40.3333 8.19444 39.6667 8.14074 39 8.08889C29.6667 7.36296 20.3333 7 11 7C8.33333 7 5.66667 7.26667 3 7.8C2.33333 7.93333 1.66667 8.08333 1 8.25Z" fill="white"/>
</g>
<defs>
<clipPath id="clip0_241_84">
<rect width="42" height="42" fill="white"/>
</clipPath>
</defs>
</svg>
